# xmcd CD database file
#
# Track frame offsets:
#	150
#	11454
#	25754
#	43658
#	56275
#	75440
#	91772
#	107581
#	124127
#	139272
#	155350
#	171043
#	186690
#
# Disc length: 2711 seconds
#
# Revision: 1
# Processed by: cddbd v1.5.2PL0 Copyright (c) Steve Scherf et al.
# Submitted via: CDex 1.51
#
DISCID=9b0a950d
DTITLE=Katie Armiger - Confessions Of A Nice Girl
DYEAR=2010
DGENRE=Country
TTITLE0=Best Song Ever
TTITLE1=Kiss Me Now
TTITLE2=That's Why
TTITLE3=Nice Girl
TTITLE4=Cry Cry Cry
TTITLE5=Ain't Gonna Happen
TTITLE6=I Will Be
TTITLE7=Scream
TTITLE8=Ain't So Sweet
TTITLE9=Can You Handle It
TTITLE10=Leaving Home
TTITLE11=Can't Keep Myself From Loving You
TTITLE12=Strong Enough
EXTD=YEAR: 2010
EXTT0=
EXTT1=
EXTT2=
EXTT3=
EXTT4=
EXTT5=
EXTT6=
EXTT7=
EXTT8=
EXTT9=
EXTT10=
EXTT11=
EXTT12=
PLAYORDER=
